<svg xmlns="http://www.w3.org/2000/svg" width="96" height="96" viewBox="0 0 96 96">
<title>boss-aegis</title>
<g id="body">
<path d="M88.78 52.29 A41 41 0 0 1 72.1 81.17" fill="none" stroke="#5b8cff" stroke-width="4" stroke-linecap="round" stroke-linejoin="round"/>
<path d="M64.68 85.46 A41 41 0 0 1 31.32 85.46" fill="none" stroke="#5b8cff" stroke-width="4" stroke-linecap="round" stroke-linejoin="round"/>
<path d="M23.9 81.17 A41 41 0 0 1 7.22 52.29" fill="none" stroke="#5b8cff" stroke-width="4" stroke-linecap="round" stroke-linejoin="round"/>
<path d="M7.22 43.71 A41 41 0 0 1 23.9 14.83" fill="none" stroke="#5b8cff" stroke-width="4" stroke-linecap="round" stroke-linejoin="round"/>
<path d="M31.32 10.54 A41 41 0 0 1 64.68 10.54" fill="none" stroke="#5b8cff" stroke-width="4" stroke-linecap="round" stroke-linejoin="round"/>
<path d="M72.1 14.83 A41 41 0 0 1 88.78 43.71" fill="none" stroke="#5b8cff" stroke-width="4" stroke-linecap="round" stroke-linejoin="round"/>
<path d="M69 48 L58.5 66.19 L37.5 66.19 L27 48 L37.5 29.81 L58.5 29.81 Z" fill="#06080d" stroke="#eaf0fa" stroke-width="4" stroke-linecap="round" stroke-linejoin="round" fill-opacity="1"/>
<path d="M59 48 L53.5 57.53 L42.5 57.53 L37 48 L42.5 38.47 L53.5 38.47 Z" fill="none" stroke="#eaf0fa" stroke-width="3" stroke-linecap="round" stroke-linejoin="round"/>
<path d="M43 53 L51 43" fill="none" stroke="#eaf0fa" stroke-width="3" stroke-linecap="round" stroke-linejoin="round"/>
<path d="M47 56 L55 46" fill="none" stroke="#eaf0fa" stroke-width="2" stroke-linecap="round" stroke-linejoin="round"/>
<path d="M65.5 78.31 L58.3 72.27 L63.87 69.06 Z" fill="#06080d" stroke="#eaf0fa" stroke-width="2" stroke-linecap="round" stroke-linejoin="round" fill-opacity="1"/>
<path d="M13 48 L21.83 44.79 L21.83 51.21 Z" fill="#06080d" stroke="#eaf0fa" stroke-width="2" stroke-linecap="round" stroke-linejoin="round" fill-opacity="1"/>
<path d="M65.5 17.69 L63.87 26.94 L58.3 23.73 Z" fill="#06080d" stroke="#eaf0fa" stroke-width="2" stroke-linecap="round" stroke-linejoin="round" fill-opacity="1"/>
</g>
</svg>
